# xmcd
#
# Track frame offsets:
#	150
#	21188
#	39051
#	54950
#	75886
#	106685
#	124306
#	150039
#	178704
#
# Disc length: 2932 seconds
#
# Revision: 0
# Processed by: cddbd v1.5.2PL0 Copyright (c) Steve Scherf et al.
# Submitted via: EZCDAudioConverter 1.0.4.1
#
DISCID=510b7209
DTITLE=Jeff Healey - As the Years Go Passing By - Deluxe Edition CD 1
DYEAR=2013
DGENRE=Blues Rock
TTITLE0=I`M Torn Down
TTITLE1=My Little Girl
TTITLE2=Confidence Man
TTITLE3=I Need To Be Loved
TTITLE4=When The Night Comes Falling From The Sky
TTITLE5=River Of No Return
TTITLE6=Angel Eyes
TTITLE7=Roadhouse Blues
TTITLE8=See The Light
EXTD=
EXTT0=
EXTT1=
EXTT2=
EXTT3=
EXTT4=
EXTT5=
EXTT6=
EXTT7=
EXTT8=
PLAYORDER=
